<?xml version="1.0" encoding="UTF-8"?>
<!DOCTYPE svg PUBLIC "-//W3C//DTD SVG 1.1//EN" "http://www.w3.org/Graphics/SVG/1.1/DTD/svg11.dtd">
<!-- Creator: CorelDRAW -->
<svg xmlns="http://www.w3.org/2000/svg" xml:space="preserve" width="2.66666in" height="2.66666in" version="1.1" style="shape-rendering:geometricPrecision; text-rendering:geometricPrecision; image-rendering:optimizeQuality; fill-rule:evenodd; clip-rule:evenodd"
viewBox="0 0 2667 2667"
 xmlns:xlink="http://www.w3.org/1999/xlink">
 <defs>
  <style type="text/css">
   <![CDATA[
    .fil1 {fill:white}
    .fil0 {fill:url(#id0)}
    .fil2 {fill:url(#id1)}
   ]]>
  </style>
  <linearGradient id="id0" gradientUnits="userSpaceOnUse" x1="-0" y1="1333.33" x2="2666.66" y2="1333.33">
   <stop offset="0" style="stop-opacity:1; stop-color:#033B4B"/>
   <stop offset="1" style="stop-opacity:1; stop-color:#108A99"/>
  </linearGradient>
  <linearGradient id="id1" gradientUnits="userSpaceOnUse" xlink:href="#id0" x1="480.146" y1="1333.33" x2="2186.52" y2="1333.33">
  </linearGradient>
 </defs>
 <g id="_535694144">
  <rect class="fil0" width="2667" height="2667" rx="592" ry="592"/>
  <rect class="fil1" x="215" y="215" width="2237" height="2237" rx="497" ry="497"/>
 </g>
 <g id="Layer_x0020_1">
  <metadata id="CorelCorpID_0Corel-Layer"/>
  <path class="fil2" d="M2164 1521l-171 0 0 -262c0,-7 -5,-13 -12,-13 -7,0 -13,6 -13,13l0 262 -414 0 0 -262c0,-7 -6,-13 -13,-13 -7,0 -12,6 -12,13l0 262 -171 0c-12,0 -22,-10 -22,-23l0 -200c0,-116 101,-212 234,-222l45 -79c-39,-38 -64,-91 -64,-150l0 -64c-18,-61 -24,-188 81,-259 39,-26 81,-40 125,-40 80,0 138,43 141,45 107,81 90,200 64,256l0 62c0,59 -25,112 -64,149l45 80c136,6 244,103 244,222l0 200c-1,13 -11,23 -23,23zm-65 197l-644 0c-12,0 -22,-11 -22,-23 0,-13 10,-23 22,-23l644 0c12,0 23,10 23,23 0,12 -11,23 -23,23zm0 154l-644 0c-12,0 -22,-10 -22,-22 0,-13 10,-23 22,-23l644 0c12,0 23,10 23,23 0,12 -11,22 -23,22zm0 155l-644 0c-12,0 -22,-10 -22,-22 0,-13 10,-23 22,-23l644 0c12,0 23,10 23,23 0,12 -11,22 -23,22zm0 155l-644 0c-12,0 -22,-10 -22,-22 0,-13 10,-23 22,-23l644 0c12,0 23,10 23,23 0,12 -11,22 -23,22zm-1366 -1042c-4,0 -8,-1 -12,-3 -7,-4 -12,-13 -11,-22l14 -100 -54 0c-12,0 -22,-10 -22,-22l0 -357c0,-13 10,-23 22,-23l235 0 0 252c0,27 22,49 49,49l206 0 0 79c0,12 -11,22 -23,22l-228 0 -163 121c-4,3 -8,4 -13,4zm681 -144c-4,0 -8,-1 -12,-4l-166 -104 -282 0c-12,0 -22,-11 -22,-23l0 -357c0,-13 10,-23 22,-23l467 0c12,0 23,10 23,23l0 357c0,12 -11,23 -23,23l-26 0 38 72c3,3 4,8 4,13 0,13 -10,23 -22,23 -1,0 -1,0 -1,0zm-92 -216c7,0 13,-6 13,-13 0,-7 -6,-13 -13,-13l-269 0c-7,0 -13,6 -13,13 0,7 6,13 13,13l269 0zm0 -81c7,0 13,-6 13,-13 0,-7 -6,-12 -13,-12l-269 0c-7,0 -13,5 -13,12 0,7 6,13 13,13l269 0zm0 -81c7,0 13,-5 13,-12 0,-7 -6,-13 -13,-13l-269 0c-7,0 -13,6 -13,13 0,7 6,12 13,12l269 0zm-607 1118l45 -78c-40,-37 -65,-90 -65,-149l0 -64c-18,-61 -24,-188 81,-259 39,-26 81,-39 125,-39 80,0 138,43 141,44 107,81 90,200 64,256l0 62c0,59 -25,112 -64,149l45 79c135,7 243,104 243,223l0 200c0,12 -10,22 -23,22l-170 0 0 -262c0,-7 -5,-12 -12,-12 -8,0 -13,5 -13,12l0 262 -413 0 0 -262c0,-7 -6,-12 -13,-12 -7,0 -13,5 -13,12l0 262 -170 0c-13,0 -23,-10 -23,-22l0 -200c0,-159 167,-221 235,-224zm86 -102c1,1 3,2 4,3 26,20 60,32 96,32 36,0 69,-12 96,-32 1,-1 2,-2 3,-3 37,-29 60,-74 60,-125l0 -66c-6,-89 -31,-135 -75,-135 -36,0 -77,28 -90,39 -7,6 -17,7 -25,2 -23,-12 -43,-18 -60,-18 -67,0 -69,110 -69,112 0,0 0,1 0,2l0 64c0,51 23,96 60,125zm-5 52l-43 76c45,98 234,117 295,-1l-43 -75c-31,18 -66,29 -104,29 -38,0 -74,-11 -105,-29zm813 -587c24,50 81,82 148,82 0,0 0,0 0,0 66,0 123,-32 148,-82l-44 -75c-31,18 -66,29 -104,29 -39,0 -74,-11 -105,-29l-43 75zm48 -127c1,1 2,2 3,3 27,20 60,32 97,32 36,0 69,-12 96,-32 1,-1 2,-2 3,-3 37,-29 61,-74 61,-125l0 -65c-7,-91 -32,-136 -76,-136 -36,0 -77,28 -90,38 -7,6 -17,7 -25,3 -23,-12 -44,-18 -61,-18 -66,0 -68,110 -68,111 0,1 0,2 -1,2l0 65c0,51 24,96 61,125z"/>
 </g>
</svg>
